<svg width="375" height="252" viewBox="0 0 375 252" fill="none" xmlns="http://www.w3.org/2000/svg">
<path d="M362.869 143.744C362.733 144.141 362.347 144.59 361.596 145.067C360.855 145.538 359.818 145.998 358.486 146.442C355.825 147.33 352.07 148.125 347.355 148.831C337.931 150.242 324.757 151.283 309.022 152.007C277.557 153.455 235.907 153.637 193.669 152.999C151.432 152.362 108.614 150.906 74.8142 149.081C57.9139 148.168 43.2718 147.164 32.0859 146.124C26.4926 145.604 21.7677 145.075 18.0586 144.545C14.3378 144.013 11.6734 143.485 10.1795 142.973C7.13368 141.93 5.07256 140.686 3.83208 139.331C2.60734 137.993 2.17054 136.536 2.37992 134.985C2.59268 133.41 3.48032 131.688 5.00953 129.876C6.53514 128.068 8.6723 126.202 11.3258 124.341C21.9511 116.887 40.6167 109.67 60.3757 106.528C82.4524 103.017 143.586 98.5143 202.309 95.9464C231.665 94.6626 260.407 93.863 283.349 93.9127C294.821 93.9375 304.837 94.1746 312.753 94.669C320.69 95.1647 326.457 95.9166 329.471 96.9489C341.729 101.147 351.585 108.512 357.618 117C363.652 125.49 365.842 135.066 362.869 143.744Z" stroke="#D2AEA2"/>
<path d="M363.778 122.614C363.69 123.024 363.359 123.516 362.67 124.078C361.99 124.633 361.014 125.212 359.744 125.81C357.206 127.005 353.571 128.238 348.972 129.495C339.78 132.007 326.82 134.594 311.28 137.168C280.206 142.316 238.868 147.406 196.849 151.753C154.831 156.1 112.141 159.702 78.3614 161.875C61.4713 162.961 46.813 163.69 35.5824 163.976C29.9668 164.119 25.2125 164.151 21.4668 164.062C17.7093 163.972 15.0011 163.762 13.4573 163.43C10.3098 162.753 8.1164 161.761 6.72481 160.562C5.35086 159.377 4.74532 157.982 4.77042 156.417C4.79592 154.828 5.47438 153.013 6.77927 151.033C8.08109 149.058 9.98336 146.953 12.3989 144.792C22.0714 136.138 39.7559 126.77 59.0066 121.321C80.5155 115.232 140.692 103.553 198.703 94.0794C227.703 89.3436 256.149 85.161 278.938 82.5054C290.333 81.1776 300.307 80.2322 308.226 79.7899C316.165 79.3465 321.981 79.4131 325.096 80.0828C337.764 82.8069 348.419 88.9579 355.411 96.6761C362.403 104.395 365.707 113.646 363.778 122.614Z" stroke="#D2AEA2"/>
</svg>
